# xmcd CD database file
#
# Track frame offsets:
#	150
#	73190
#	131922
#	205055
#	240673
#	260114
#
# Disc length: 4189 seconds
#
# Revision: 0
# Processed by: cddbd v1.4PL0 Copyright (c) Steve Scherf et al.
# Submitted via: CDex 1.50
#
DISCID=5e105b06
DTITLE=Christophe Schweizer/5Six7 - Portas
DYEAR=2000
DGENRE=Jazz
TTITLE0=20-10-15
TTITLE1=29
TTITLE2=17
TTITLE3=5-6-7 Sequence 1
TTITLE4=5-6-7 Sequence 2
TTITLE5=7-8
EXTD=YEAR: 2000
EXTT0=
EXTT1=
EXTT2=
EXTT3=
EXTT4=
EXTT5=
PLAYORDER=
